<svg width="240" height="164" viewBox="0 0 240 164" fill="none" xmlns="http://www.w3.org/2000/svg">
<g clip-path="url(#clip0_1_2042)">
<path d="M171.2 43.024C164.976 39.616 158.492 38.248 151.416 39.124C142.7 40.2 135.816 41.468 127.476 38.22C120.464 35.492 114.06 31.42 107.372 28.044C93.6923 21.104 80.1123 18.956 69.8563 32.644C64.4003 39.928 60.2563 48.292 57.3963 57.116C52.7723 71.352 48.9723 87.116 51.0563 101.984C53.6923 120.832 69.8563 129.68 89.1923 122.852C97.0123 120.092 104.56 116.052 112.9 114.896C130.352 112.472 144.736 128.496 165.664 124.6C201.736 117.896 199.072 58.284 171.2 43.024Z" fill="#D5D8DA"/>
<path opacity="0.7" d="M171.2 43.024C164.976 39.616 158.492 38.248 151.416 39.124C142.7 40.2 135.816 41.468 127.476 38.22C120.464 35.492 114.06 31.42 107.372 28.044C93.6923 21.104 80.1123 18.956 69.8563 32.644C64.4003 39.928 60.2563 48.292 57.3963 57.116C52.7723 71.352 48.9723 87.116 51.0563 101.984C53.6923 120.832 69.8563 129.68 89.1923 122.852C97.0123 120.092 104.56 116.052 112.9 114.896C130.352 112.472 144.736 128.496 165.664 124.6C201.736 117.896 199.072 58.284 171.2 43.024Z" fill="white"/>
<path d="M176.66 27.6681C174.12 26.2801 172.968 27.4361 172.044 26.2801C171.12 25.1241 174.584 22.1241 167.644 19.1241C167.644 19.1241 167.184 12.6601 157.716 12.4281C148.248 12.1961 150.8 18.8921 148.26 20.5081C145.72 22.1241 145.028 19.6001 142.488 21.2001C139.948 22.8001 141.104 26.0481 139.028 26.5081C136.952 26.9681 134.176 24.4321 131.636 26.0481C129.096 27.6641 129.096 29.0481 127.944 29.0481C126.792 29.0481 124.48 28.1241 123.096 29.0481C121.712 29.9721 120.092 31.1281 120.092 31.1281H178.492C178.492 31.1281 179.2 29.0521 176.66 27.6681Z" fill="#D5D8DA"/>
<path opacity="0.5" d="M176.66 27.6681C174.12 26.2801 172.968 27.4361 172.044 26.2801C171.12 25.1241 174.584 22.1241 167.644 19.1241C167.644 19.1241 167.184 12.6601 157.716 12.4281C148.248 12.1961 150.8 18.8921 148.26 20.5081C145.72 22.1241 145.028 19.6001 142.488 21.2001C139.948 22.8001 141.104 26.0481 139.028 26.5081C136.952 26.9681 134.176 24.4321 131.636 26.0481C129.096 27.6641 129.096 29.0481 127.944 29.0481C126.792 29.0481 124.48 28.1241 123.096 29.0481C121.712 29.9721 120.092 31.1281 120.092 31.1281H178.492C178.492 31.1281 179.2 29.0521 176.66 27.6681Z" fill="white"/>
<path d="M110.432 79.5601C108.648 78.5881 107.836 79.3961 107.188 78.5881C106.54 77.7801 108.972 75.6681 104.108 73.5601C104.108 73.5601 103.784 69.0201 97.1318 68.8561C90.4798 68.6921 92.2678 73.3961 90.4838 74.5321C88.6998 75.6681 88.2158 73.8841 86.4318 75.0201C84.6478 76.1561 85.4558 78.4241 83.9998 78.7481C82.5438 79.0721 80.5918 77.2881 78.7998 78.4241C77.0078 79.5601 77.0158 80.5321 76.2078 80.5321C75.3998 80.5321 73.7718 79.8841 72.7998 80.5321C71.8278 81.1801 70.6918 81.9921 70.6918 81.9921H111.728C111.728 81.9921 112.216 80.5321 110.432 79.5601Z" fill="white"/>
<path opacity="0.5" d="M110.432 79.5601C108.648 78.5881 107.836 79.3961 107.188 78.5881C106.54 77.7801 108.972 75.6681 104.108 73.5601C104.108 73.5601 103.784 69.0201 97.1318 68.8561C90.4798 68.6921 92.2678 73.3961 90.4838 74.5321C88.6998 75.6681 88.2158 73.8841 86.4318 75.0201C84.6478 76.1561 85.4558 78.4241 83.9998 78.7481C82.5438 79.0721 80.5918 77.2881 78.7998 78.4241C77.0078 79.5601 77.0158 80.5321 76.2078 80.5321C75.3998 80.5321 73.7718 79.8841 72.7998 80.5321C71.8278 81.1801 70.6918 81.9921 70.6918 81.9921H111.728C111.728 81.9921 112.216 80.5321 110.432 79.5601Z" fill="white"/>
<path d="M161.148 147.148H186.428C185.944 144.056 183.956 144.6 183.692 139.808C183.56 137.408 185.796 134.408 185.6 131.24C185.44 128.628 182.868 125.952 182.668 122.964C182.488 120.268 184.668 117.276 184.472 114.372C184.268 111.628 181.672 108.992 181.428 106.136C181.204 103.336 183.356 100.332 183.1 97.516C182.844 94.7 180.192 92.112 179.9 89.336C179.608 86.484 181.692 83.412 181.372 80.684C181.036 77.784 178.3 75.28 177.928 72.608C177.528 69.636 179.452 66.46 179 63.892C178.444 60.748 175.516 58.472 174.9 56.152C173.752 51.828 173.896 47.664 172.54 47.392C171.096 47.104 170.764 51.188 169.668 55.752C169.116 58.044 166.256 60.368 165.784 63.516C165.404 66.064 167.428 69.164 167.096 72.124C166.8 74.776 164.132 77.324 163.872 80.208C163.628 82.92 165.792 85.908 165.58 88.744C165.372 91.5 162.78 94.128 162.608 96.928C162.436 99.728 164.66 102.656 164.508 105.42C164.352 108.252 161.812 110.928 161.68 113.652C161.544 116.536 163.82 119.444 163.708 122.116C163.584 125.08 161.08 127.792 160.988 130.384C160.876 133.528 163.184 136.428 163.112 138.824C162.96 144.024 160.58 142.94 160.496 147.124L161.148 147.148Z" fill="#D5D8DA"/>
<path d="M172 55.7V145.98" stroke="#B1B7BB" stroke-miterlimit="10"/>
<path d="M175.948 65.164L171.832 68.72L168.464 64.228" stroke="#B1B7BB" stroke-miterlimit="10"/>
<path d="M175.948 80.8799L171.832 84.4319L168.464 79.9439" stroke="#B1B7BB" stroke-miterlimit="10"/>
<path d="M175.948 95.656L171.832 99.212L168.464 94.72" stroke="#B1B7BB" stroke-miterlimit="10"/>
<path d="M175.948 113.244L171.832 116.796L168.464 112.308" stroke="#B1B7BB" stroke-miterlimit="10"/>
<path d="M175.948 131.016L171.832 134.568L168.464 130.08" stroke="#B1B7BB" stroke-miterlimit="10"/>
<path d="M143.928 147.148H163.444C163.068 144.748 161.536 145.18 161.332 141.484C161.228 139.62 162.952 137.316 162.804 134.868C162.68 132.868 160.696 130.784 160.54 128.468C160.4 126.388 162.096 124.068 161.932 121.836C161.776 119.716 159.764 117.684 159.584 115.48C159.404 113.276 161.072 110.996 160.876 108.824C160.68 106.652 158.628 104.652 158.412 102.512C158.188 100.308 159.796 97.9401 159.548 95.828C159.288 93.592 157.176 91.66 156.892 89.6C156.572 87.304 158.068 84.852 157.716 82.872C157.288 80.444 155.028 78.684 154.556 76.896C153.668 73.56 153.78 70.34 152.732 70.132C151.616 69.908 151.36 73.06 150.516 76.588C150.092 78.356 147.88 80.152 147.516 82.588C147.224 84.556 148.784 86.948 148.528 89.232C148.3 91.28 146.244 93.232 146.04 95.472C145.852 97.564 147.524 99.872 147.36 102.06C147.2 104.188 145.204 106.216 145.064 108.376C144.924 110.536 146.664 112.8 146.532 114.932C146.4 117.064 144.452 119.184 144.352 121.288C144.244 123.512 146 125.756 145.916 127.82C145.82 130.108 143.888 132.22 143.816 134.22C143.728 136.644 145.512 138.888 145.456 140.732C145.336 144.732 143.5 143.912 143.436 147.132L143.928 147.148Z" fill="#D5D8DA"/>
<path d="M152.308 76.56V146.248" stroke="#B1B7BB" stroke-miterlimit="10"/>
<path d="M155.352 83.8639L152.176 86.6079L149.576 83.14" stroke="#B1B7BB" stroke-miterlimit="10"/>
<path d="M155.352 95.992L152.176 98.736L149.576 95.272" stroke="#B1B7BB" stroke-miterlimit="10"/>
<path d="M155.352 107.4L152.176 110.144L149.576 106.68" stroke="#B1B7BB" stroke-miterlimit="10"/>
<path d="M155.352 120.976L152.176 123.72L149.576 120.252" stroke="#B1B7BB" stroke-miterlimit="10"/>
<path d="M155.352 134.696L152.176 137.436L149.576 133.972" stroke="#B1B7BB" stroke-miterlimit="10"/>
<path d="M126.532 146.96V66.088H130.8V146.96" fill="#8E969B"/>
<path d="M126.532 146.96V66.088H130.8V146.96" stroke="#8E969B" stroke-linecap="round" stroke-linejoin="round"/>
<path d="M124.4 146.96V66.088H128.668V146.96" fill="#D5D8DA"/>
<path d="M124.4 146.96V66.088H128.668V146.96" stroke="#8E969B" stroke-linecap="round" stroke-linejoin="round"/>
<g style="mix-blend-mode:multiply" opacity="0.3">
<path d="M128.668 66.088H124.4V75.688H128.668V66.088Z" fill="#8E969B"/>
</g>
<path d="M142.612 34.5161H110.988L124.772 68.3721H156.4V48.3001C156.4 46.4896 156.043 44.6969 155.351 43.0243C154.658 41.3517 153.642 39.832 152.361 38.5519C151.081 37.2719 149.561 36.2567 147.888 35.5642C146.215 34.8717 144.423 34.5156 142.612 34.5161Z" fill="#D5D8DA" stroke="#8E969B" stroke-linecap="round" stroke-linejoin="round"/>
<g style="mix-blend-mode:multiply" opacity="0.3">
<path d="M122.36 62.444L124.76 68.372H156.4V48.3C156.4 47.996 156.4 47.692 156.368 47.392H122.368L122.36 62.444Z" fill="#B1B7BB"/>
</g>
<path d="M142.38 47.392H139.052" stroke="#8E969B" stroke-linecap="round" stroke-linejoin="round"/>
<path d="M156.368 47.392H146.296" stroke="#8E969B" stroke-linecap="round" stroke-linejoin="round"/>
<path d="M110.988 34.5161C114.645 34.5161 118.152 35.9688 120.738 38.5545C123.323 41.1403 124.776 44.6473 124.776 48.3041V68.3761H97.2V48.3001C97.201 44.644 98.6541 41.138 101.24 38.5531C103.825 35.9682 107.332 34.5161 110.988 34.5161Z" fill="#8E969B" stroke="#8E969B" stroke-linecap="round" stroke-linejoin="round"/>
<path d="M124.772 66.088H101.012V68.372H124.772V66.088Z" fill="#D5D8DA" stroke="#8E969B" stroke-linecap="round" stroke-linejoin="round"/>
<path d="M124.772 66.088H75.6V68.372H124.772V66.088Z" fill="#D5D8DA" stroke="#8E969B" stroke-linecap="round" stroke-linejoin="round"/>
<path opacity="0.3" d="M124.772 66.088H101.012V68.372H124.772V66.088Z" fill="#B1B7BB"/>
<path d="M144.668 26.3561H134.8V33.2881H144.668V26.3561Z" fill="#8E969B" stroke="#8E969B" stroke-linecap="round" stroke-linejoin="round"/>
<path d="M135.6 26.3561H133.468V47.9561H135.6V26.3561Z" fill="white" stroke="#8E969B" stroke-linecap="round" stroke-linejoin="round"/>
<path d="M134.532 50.888C135.857 50.888 136.932 49.8135 136.932 48.488C136.932 47.1625 135.857 46.088 134.532 46.088C133.206 46.088 132.132 47.1625 132.132 48.488C132.132 49.8135 133.206 50.888 134.532 50.888Z" fill="#8E969B" stroke="#8E969B" stroke-linecap="round" stroke-linejoin="round"/>
<path d="M189.332 120.224H196" stroke="#8E969B" stroke-linecap="round" stroke-linejoin="round"/>
<path d="M189.332 130.088H196" stroke="#8E969B" stroke-linecap="round" stroke-linejoin="round"/>
<path d="M48.932 129.824H188.532V120.488H48.932" fill="white"/>
<path d="M48.932 129.824H188.532V120.488H48.932" stroke="#8E969B" stroke-linecap="round" stroke-linejoin="round"/>
<path d="M58.6361 147.024V100.056C58.6362 99.9408 58.6596 99.8268 58.705 99.7209C58.7504 99.615 58.8167 99.5194 58.9001 99.4399L62.5481 96.0039C62.7124 95.8504 62.9307 95.7679 63.1555 95.7747C63.3803 95.7814 63.5933 95.8768 63.7481 96.0399L66.9481 99.4439C67.0933 99.6024 67.1745 99.809 67.1761 100.024V147.024" fill="#8E969B"/>
<path d="M58.6361 147.024V100.056C58.6362 99.9408 58.6596 99.8268 58.705 99.7209C58.7504 99.615 58.8167 99.5194 58.9001 99.4399L62.5481 96.0039C62.7124 95.8504 62.9307 95.7679 63.1555 95.7747C63.3803 95.7814 63.5933 95.8768 63.7481 96.0399L66.9481 99.4439C67.0933 99.6024 67.1745 99.809 67.1761 100.024V147.024" stroke="#8E969B" stroke-linecap="round" stroke-linejoin="round"/>
<path d="M57.6001 147.424V100.056C57.6 99.9404 57.6237 99.826 57.6698 99.72C57.716 99.614 57.7834 99.5187 57.8681 99.4399L61.5161 96.0039C61.5972 95.9274 61.6926 95.8676 61.7968 95.828C61.9011 95.7884 62.0121 95.7697 62.1236 95.773C62.235 95.7764 62.3447 95.8017 62.4464 95.8475C62.5481 95.8933 62.6397 95.9587 62.7161 96.0399L65.9161 99.4439C66.063 99.6013 66.1445 99.8087 66.1441 100.024V147.424" fill="white"/>
<path d="M57.6001 147.424V100.056C57.6 99.9404 57.6237 99.826 57.6698 99.72C57.716 99.614 57.7834 99.5187 57.8681 99.4399L61.5161 96.0039C61.5972 95.9274 61.6926 95.8676 61.7968 95.828C61.9011 95.7884 62.0121 95.7697 62.1236 95.773C62.235 95.7764 62.3447 95.8017 62.4464 95.8475C62.5481 95.8933 62.6397 95.9587 62.7161 96.0399L65.9161 99.4439C66.063 99.6013 66.1445 99.8087 66.1441 100.024V147.424" stroke="#8E969B" stroke-linecap="round" stroke-linejoin="round"/>
<path d="M89.3959 147.024V100.056C89.396 99.9408 89.4194 99.8268 89.4648 99.7209C89.5101 99.615 89.5765 99.5194 89.6599 99.4399L93.3119 96.0039C93.393 95.9274 93.4884 95.8676 93.5926 95.828C93.6968 95.7884 93.8079 95.7697 93.9193 95.773C94.0308 95.7764 94.1405 95.8017 94.2422 95.8475C94.3439 95.8933 94.4355 95.9587 94.5119 96.0399L97.7119 99.4439C97.8587 99.6013 97.9402 99.8087 97.9399 100.024V147.024" fill="#8E969B"/>
<path d="M89.3959 147.024V100.056C89.396 99.9408 89.4194 99.8268 89.4648 99.7209C89.5101 99.615 89.5765 99.5194 89.6599 99.4399L93.3119 96.0039C93.393 95.9274 93.4884 95.8676 93.5926 95.828C93.6968 95.7884 93.8079 95.7697 93.9193 95.773C94.0308 95.7764 94.1405 95.8017 94.2422 95.8475C94.3439 95.8933 94.4355 95.9587 94.5119 96.0399L97.7119 99.4439C97.8587 99.6013 97.9402 99.8087 97.9399 100.024V147.024" stroke="#8E969B" stroke-linecap="round" stroke-linejoin="round"/>
<path d="M88.532 147.424V100.056C88.5319 99.9404 88.5556 99.826 88.6017 99.72C88.6478 99.614 88.7153 99.5187 88.8 99.4399L92.448 96.0039C92.6123 95.8504 92.8306 95.7679 93.0554 95.7747C93.2802 95.7814 93.4932 95.8768 93.648 96.0399L96.848 99.4439C96.996 99.6009 97.0789 99.8082 97.08 100.024V147.424" fill="white"/>
<path d="M88.532 147.424V100.056C88.5319 99.9404 88.5556 99.826 88.6017 99.72C88.6478 99.614 88.7153 99.5187 88.8 99.4399L92.448 96.0039C92.6123 95.8504 92.8306 95.7679 93.0554 95.7747C93.2802 95.7814 93.4932 95.8768 93.648 96.0399L96.848 99.4439C96.996 99.6009 97.0789 99.8082 97.08 100.024V147.424" stroke="#8E969B" stroke-linecap="round" stroke-linejoin="round"/>
<path d="M120.328 147.024V100.056C120.328 99.9404 120.352 99.826 120.398 99.72C120.444 99.614 120.511 99.5187 120.596 99.4399L124.244 96.0039C124.408 95.8504 124.626 95.7679 124.851 95.7747C125.076 95.7814 125.289 95.8768 125.444 96.0399L128.644 99.4439C128.792 99.6009 128.875 99.8082 128.876 100.024V147.424" fill="#8E969B"/>
<path d="M120.328 147.024V100.056C120.328 99.9404 120.352 99.826 120.398 99.72C120.444 99.614 120.511 99.5187 120.596 99.4399L124.244 96.0039C124.408 95.8504 124.626 95.7679 124.851 95.7747C125.076 95.7814 125.289 95.8768 125.444 96.0399L128.644 99.4439C128.792 99.6009 128.875 99.8082 128.876 100.024V147.424" stroke="#8E969B" stroke-linecap="round" stroke-linejoin="round"/>
<path d="M119.468 147.424V100.056C119.468 99.9408 119.492 99.8268 119.537 99.7209C119.582 99.615 119.649 99.5194 119.732 99.4399L123.384 96.0039C123.465 95.9274 123.561 95.8676 123.665 95.828C123.769 95.7884 123.88 95.7697 123.992 95.773C124.103 95.7764 124.213 95.8017 124.314 95.8475C124.416 95.8933 124.508 95.9587 124.584 96.0399L127.784 99.4439C127.931 99.6013 128.013 99.8087 128.012 100.024V147.424" fill="white"/>
<path d="M119.468 147.424V100.056C119.468 99.9408 119.492 99.8268 119.537 99.7209C119.582 99.615 119.649 99.5194 119.732 99.4399L123.384 96.0039C123.465 95.9274 123.561 95.8676 123.665 95.828C123.769 95.7884 123.88 95.7697 123.992 95.773C124.103 95.7764 124.213 95.8017 124.314 95.8475C124.416 95.8933 124.508 95.9587 124.584 96.0399L127.784 99.4439C127.931 99.6013 128.013 99.8087 128.012 100.024V147.424" stroke="#8E969B" stroke-linecap="round" stroke-linejoin="round"/>
<path d="M151.264 147.024V100.056C151.264 99.9408 151.287 99.8268 151.333 99.7209C151.378 99.615 151.445 99.5194 151.528 99.4399L155.176 96.0039C155.34 95.8504 155.559 95.7679 155.783 95.7747C156.008 95.7814 156.221 95.8768 156.376 96.0399L159.576 99.4439C159.721 99.6024 159.802 99.809 159.804 100.024V147.024" fill="#8E969B"/>
<path d="M151.264 147.024V100.056C151.264 99.9408 151.287 99.8268 151.333 99.7209C151.378 99.615 151.445 99.5194 151.528 99.4399L155.176 96.0039C155.34 95.8504 155.559 95.7679 155.783 95.7747C156.008 95.7814 156.221 95.8768 156.376 96.0399L159.576 99.4439C159.721 99.6024 159.802 99.809 159.804 100.024V147.024" stroke="#8E969B" stroke-linecap="round" stroke-linejoin="round"/>
<path d="M150.4 147.424V100.056C150.4 99.9404 150.424 99.826 150.47 99.72C150.516 99.614 150.583 99.5187 150.668 99.4399L154.316 96.0039C154.397 95.9274 154.493 95.8676 154.597 95.828C154.701 95.7884 154.812 95.7697 154.923 95.773C155.035 95.7764 155.145 95.8017 155.246 95.8475C155.348 95.8933 155.44 95.9587 155.516 96.0399L158.716 99.4439C158.863 99.6013 158.944 99.8087 158.944 100.024V147.424" fill="white"/>
<path d="M150.4 147.424V100.056C150.4 99.9404 150.424 99.826 150.47 99.72C150.516 99.614 150.583 99.5187 150.668 99.4399L154.316 96.0039C154.397 95.9274 154.493 95.8676 154.597 95.828C154.701 95.7884 154.812 95.7697 154.923 95.773C155.035 95.7764 155.145 95.8017 155.246 95.8475C155.348 95.8933 155.44 95.9587 155.516 96.0399L158.716 99.4439C158.863 99.6013 158.944 99.8087 158.944 100.024V147.424" stroke="#8E969B" stroke-linecap="round" stroke-linejoin="round"/>
<path d="M182.196 147.024V100.056C182.196 99.9408 182.219 99.8268 182.265 99.7209C182.31 99.615 182.377 99.5194 182.46 99.4399L186.112 96.0039C186.193 95.9274 186.288 95.8676 186.393 95.828C186.497 95.7884 186.608 95.7697 186.719 95.773C186.831 95.7764 186.941 95.8017 187.042 95.8475C187.144 95.8933 187.236 95.9587 187.312 96.0399L190.512 99.4439C190.659 99.6013 190.74 99.8087 190.74 100.024V147.024" fill="#8E969B"/>
<path d="M182.196 147.024V100.056C182.196 99.9408 182.219 99.8268 182.265 99.7209C182.31 99.615 182.377 99.5194 182.46 99.4399L186.112 96.0039C186.193 95.9274 186.288 95.8676 186.393 95.828C186.497 95.7884 186.608 95.7697 186.719 95.773C186.831 95.7764 186.941 95.8017 187.042 95.8475C187.144 95.8933 187.236 95.9587 187.312 96.0399L190.512 99.4439C190.659 99.6013 190.74 99.8087 190.74 100.024V147.024" stroke="#8E969B" stroke-linecap="round" stroke-linejoin="round"/>
<path d="M181.332 147.424V100.056C181.332 99.9404 181.356 99.826 181.402 99.72C181.448 99.614 181.515 99.5187 181.6 99.4399L185.248 96.0039C185.412 95.8504 185.631 95.7679 185.855 95.7747C186.08 95.7814 186.293 95.8768 186.448 96.0399L189.648 99.4439C189.796 99.6009 189.879 99.8082 189.88 100.024V147.424" fill="white"/>
<path d="M181.332 147.424V100.056C181.332 99.9404 181.356 99.826 181.402 99.72C181.448 99.614 181.515 99.5187 181.6 99.4399L185.248 96.0039C185.412 95.8504 185.631 95.7679 185.855 95.7747C186.08 95.7814 186.293 95.8768 186.448 96.0399L189.648 99.4439C189.796 99.6009 189.879 99.8082 189.88 100.024V147.424" stroke="#8E969B" stroke-linecap="round" stroke-linejoin="round"/>
<path d="M62.7119 96.0399V99.464" stroke="#8E969B" stroke-linecap="round" stroke-linejoin="round"/>
<path d="M64.0841 97.808V105.912" stroke="#8E969B" stroke-linecap="round" stroke-linejoin="round"/>
<path d="M90.2161 98.4719V108.724" stroke="#8E969B" stroke-linecap="round" stroke-linejoin="round"/>
<path d="M91.5403 97.1479V101.612" stroke="#8E969B" stroke-linecap="round" stroke-linejoin="round"/>
<path d="M123.384 96.004V106.08" stroke="#8E969B" stroke-linecap="round" stroke-linejoin="round"/>
<path d="M125.284 96.816V111.704" stroke="#8E969B" stroke-linecap="round" stroke-linejoin="round"/>
<path d="M151.912 98.4719V109.716" stroke="#8E969B" stroke-linecap="round" stroke-linejoin="round"/>
<path d="M156.212 97.1479V99.9599" stroke="#8E969B" stroke-linecap="round" stroke-linejoin="round"/>
<path d="M184.164 96.9799V102.936" stroke="#8E969B" stroke-linecap="round" stroke-linejoin="round"/>
<path d="M187.804 97.6439V114.844" stroke="#8E969B" stroke-linecap="round" stroke-linejoin="round"/>
<path d="M181.188 122.784H177.548" stroke="#8E969B" stroke-linecap="round" stroke-linejoin="round"/>
<path d="M181.188 125.596H168.452" stroke="#8E969B" stroke-linecap="round" stroke-linejoin="round"/>
<path d="M133.716 125.596H127.928" stroke="#8E969B" stroke-linecap="round" stroke-linejoin="round"/>
<path d="M103.284 125.596H97.496" stroke="#8E969B" stroke-linecap="round" stroke-linejoin="round"/>
<path d="M57.4679 124.108H51.6799" stroke="#8E969B" stroke-linecap="round" stroke-linejoin="round"/>
<path d="M57.4681 126.752H55.1521" stroke="#8E969B" stroke-linecap="round" stroke-linejoin="round"/>
<path d="M130.74 124.108H127.928" stroke="#8E969B" stroke-linecap="round" stroke-linejoin="round"/>
<path d="M99.9759 127.248H97.1639" stroke="#8E969B" stroke-linecap="round" stroke-linejoin="round"/>
<path d="M88.2322 127.248H85.4202" stroke="#8E969B" stroke-linecap="round" stroke-linejoin="round"/>
<path d="M192.432 125.596H189.952" stroke="#8E969B" stroke-linecap="round" stroke-linejoin="round"/>
<path d="M195.74 125.596H194.252" stroke="#8E969B" stroke-linecap="round" stroke-linejoin="round"/>
<path d="M65.9998 108.4C65.9998 108.4 64.9998 116.996 63.7998 125.792C62.5998 134.588 64.7998 143.588 65.3998 144.388" stroke="#8E969B" stroke-linecap="round" stroke-linejoin="round"/>
<path d="M62.0438 125.8C62.2358 124.084 62.3958 123 62.3958 123" stroke="#8E969B" stroke-linecap="round" stroke-linejoin="round"/>
<path d="M64.9959 143.388C64.9959 143.388 61.3959 142.588 61.3959 136.188C61.3959 133.56 61.5639 130.868 61.7639 128.588" stroke="#8E969B" stroke-linecap="round" stroke-linejoin="round"/>
<path d="M95.2 98.2C95.2 98.2 96 98.8 94.6 105.6C93.2 112.4 93.4 122.4 95.2 128" stroke="#8E969B" stroke-linecap="round" stroke-linejoin="round"/>
<path d="M97.1998 110.8C97.1998 110.8 95.1998 116.8 96.5998 125.2" stroke="#8E969B" stroke-linecap="round" stroke-linejoin="round"/>
<path d="M120 114.596C120 114.596 121 120.396 122 126.392C123 132.388 122.2 140.792 121.4 142.988C120.6 145.184 119.8 146.988 119.8 146.988" stroke="#8E969B" stroke-linecap="round" stroke-linejoin="round"/>
<path d="M123.768 144.048C122.876 146.784 121.768 143.588 121.768 143.588" stroke="#8E969B" stroke-linecap="round" stroke-linejoin="round"/>
<path d="M123.732 123.6C123.732 123.6 125.616 133.324 124.552 140.644" stroke="#8E969B" stroke-linecap="round" stroke-linejoin="round"/>
<path d="M119.6 126.8C119.6 126.8 121.6 131 119.8 135" stroke="#8E969B" stroke-linecap="round" stroke-linejoin="round"/>
<path d="M156.92 127.392C157.188 128.615 157.539 129.818 157.972 130.992" stroke="#8E969B" stroke-linecap="round" stroke-linejoin="round"/>
<path d="M158.572 106.6C157.303 110.629 156.497 114.789 156.172 119C156.052 121.131 156.172 123.268 156.528 125.372" stroke="#8E969B" stroke-linecap="round" stroke-linejoin="round"/>
<path d="M154.772 124.992C154.772 124.992 156.572 131.792 157.572 134.192C158.572 136.592 158.172 142.388 156.972 145.188" stroke="#8E969B" stroke-linecap="round" stroke-linejoin="round"/>
<path d="M181.764 109.6C181.764 109.6 185.764 116.8 181.964 128.596" stroke="#8E969B" stroke-linecap="round" stroke-linejoin="round"/>
<path d="M185.44 121.896C185.464 124.144 185.264 126.992 184.364 129.392C182.564 134.192 181.764 135.792 181.764 135.792" stroke="#8E969B" stroke-linecap="round" stroke-linejoin="round"/>
<path d="M185.164 118C185.164 118 185.296 118.86 185.376 120.184" stroke="#8E969B" stroke-linecap="round" stroke-linejoin="round"/>
</g>
<defs>
<clipPath id="clip0_1_2042">
<rect width="240" height="164" fill="white"/>
</clipPath>
</defs>
</svg>
