<svg width="16" height="16" viewBox="0 0 16 16" fill="none" xmlns="http://www.w3.org/2000/svg">
<path fill-rule="evenodd" clip-rule="evenodd" d="M11.3333 12H3.33333C2.59667 12 2 11.4033 2 10.6667V5.33333C2 4.59667 2.59667 4 3.33333 4H11.3333C12.07 4 12.6667 4.59667 12.6667 5.33333V10.6667C12.6667 11.4033 12.07 12 11.3333 12Z" stroke="#26333B" stroke-width="1.5" stroke-linecap="round" stroke-linejoin="round"/>
<path d="M7.5333 10L8.5333 8H6.1333L7.1333 6" stroke="#26333B" stroke-width="1.5" stroke-linecap="round" stroke-linejoin="round"/>
<path d="M12.6666 6H13.3426C13.446 6 13.548 6.024 13.6406 6.07067L13.9646 6.23267C14.1906 6.34533 14.3333 6.57667 14.3333 6.82867V9.17133C14.3333 9.424 14.1906 9.65467 13.9646 9.76733L13.6406 9.92933C13.548 9.976 13.446 10 13.3426 10H12.6666" stroke="#26333B" stroke-width="1.5" stroke-linecap="round" stroke-linejoin="round"/>
</svg>
