<svg width="16" height="16" viewBox="0 0 16 16" fill="none" xmlns="http://www.w3.org/2000/svg">
<path fill-rule="evenodd" clip-rule="evenodd" d="M11.3334 14H4.66671C3.93004 14 3.33337 13.4033 3.33337 12.6667V7.33333C3.33337 6.59667 3.93004 6 4.66671 6H11.3334C12.07 6 12.6667 6.59667 12.6667 7.33333V12.6667C12.6667 13.4033 12.07 14 11.3334 14Z" stroke="white" stroke-width="1.5" stroke-linecap="round" stroke-linejoin="round"/>
<path d="M8.00008 11.3932V9.6665" stroke="white" stroke-width="1.5" stroke-linecap="round" stroke-linejoin="round"/>
<path d="M8.35355 8.81295C8.54881 9.00821 8.54881 9.32479 8.35355 9.52006C8.15829 9.71532 7.84171 9.71532 7.64645 9.52006C7.45118 9.32479 7.45118 9.00821 7.64645 8.81295C7.84171 8.61769 8.15829 8.61769 8.35355 8.81295" stroke="white" stroke-width="1.5" stroke-linecap="round" stroke-linejoin="round"/>
<path d="M5.33337 6V4.66667V4.66667C5.33337 3.194 6.52737 2 8.00004 2V2C9.47271 2 10.6667 3.194 10.6667 4.66667V4.66667V6" stroke="white" stroke-width="1.5" stroke-linecap="round" stroke-linejoin="round"/>
</svg>
