<svg width="24" height="24" viewBox="0 0 24 24" fill="none" xmlns="http://www.w3.org/2000/svg">
<path d="M8.25 6L15.007 5.987C16.67 5.984 18.019 7.335 18.012 8.998V9.012C18.005 10.664 16.664 12 15.013 12H9.999C8.343 12 7 13.343 7 14.999V14.999C7 16.656 8.344 17.999 10.001 17.998L20 17.995" stroke="white" stroke-width="1.5" stroke-linecap="round" stroke-linejoin="round"/>
<path d="M20 17.995L18.003 19.992" stroke="white" stroke-width="1.5" stroke-linecap="round" stroke-linejoin="round"/>
<path d="M18.003 15.997L20 17.995" stroke="white" stroke-width="1.5" stroke-linecap="round" stroke-linejoin="round"/>
<path d="M7.59099 4.40901C8.46967 5.28769 8.46967 6.71231 7.59099 7.59099C6.71231 8.46967 5.28769 8.46967 4.40901 7.59099C3.53033 6.71231 3.53033 5.28769 4.40901 4.40901C5.28769 3.53033 6.71231 3.53033 7.59099 4.40901" stroke="white" stroke-width="1.5" stroke-linecap="round" stroke-linejoin="round"/>
</svg>
