<svg width="16" height="16" viewBox="0 0 16 16" fill="none" xmlns="http://www.w3.org/2000/svg">
<path d="M7.99945 12.8333C7.86145 12.8333 7.74945 12.9453 7.75079 13.0833C7.75012 13.2213 7.86212 13.3333 8.00012 13.3333C8.13812 13.3333 8.25012 13.2213 8.25012 13.0833C8.25012 12.9453 8.13812 12.8333 7.99945 12.8333" stroke="white" stroke-width="1.5" stroke-linecap="round" stroke-linejoin="round"/>
<path d="M4 13.3333L12.6667 2" stroke="white" stroke-width="1.5" stroke-linecap="round" stroke-linejoin="round"/>
<path d="M9.41103 6.25871C7.1877 5.84004 4.78637 6.41871 3.06104 8.00071" stroke="white" stroke-width="1.5" stroke-linecap="round" stroke-linejoin="round"/>
<path d="M11.6761 3.29613C8.13608 2.03546 3.93208 2.67079 1.06274 5.20279" stroke="white" stroke-width="1.5" stroke-linecap="round" stroke-linejoin="round"/>
<path d="M11.5118 6.99854C12.0218 7.26853 12.5032 7.59987 12.9392 8.00053" stroke="white" stroke-width="1.5" stroke-linecap="round" stroke-linejoin="round"/>
<path d="M13.6136 4.24854C14.0756 4.53187 14.5243 4.83987 14.937 5.2032" stroke="white" stroke-width="1.5" stroke-linecap="round" stroke-linejoin="round"/>
<path d="M9.50806 9.61816C10.0321 9.81883 10.5241 10.1275 10.9467 10.5475" stroke="white" stroke-width="1.5" stroke-linecap="round" stroke-linejoin="round"/>
</svg>
