<svg width="24" height="24" viewBox="0 0 24 24" fill="none" xmlns="http://www.w3.org/2000/svg">
<path d="M12 13.5006V12C13.105 12 14.0008 11.1042 14.0008 9.99915C14.0008 8.89413 13.105 7.99832 12 7.99832C10.8949 7.99832 9.99915 8.89413 9.99915 9.99915" stroke="#6B757C" stroke-width="1.5" stroke-linecap="round" stroke-linejoin="round"/>
<path fill-rule="evenodd" clip-rule="evenodd" d="M12 21.0037C16.9726 21.0037 21.0037 16.9726 21.0037 12C21.0037 7.02736 16.9726 2.99625 12 2.99625C7.02733 2.99625 2.99622 7.02736 2.99622 12C2.99622 16.9726 7.02733 21.0037 12 21.0037Z" stroke="#6B757C" stroke-width="1.5" stroke-linecap="round" stroke-linejoin="round"/>
<path d="M12 15.9517C11.9723 15.9517 11.9499 15.974 11.9499 16.0017C11.9499 16.0293 11.9723 16.0517 12 16.0517C12.0276 16.0517 12.05 16.0293 12.05 16.0017C12.05 15.974 12.0276 15.9517 12 15.9517" stroke="#6B757C" stroke-width="1.5" stroke-linecap="round" stroke-linejoin="round"/>
</svg>
