<svg width="24" height="24" viewBox="0 0 24 24" fill="none" xmlns="http://www.w3.org/2000/svg">
<path fill-rule="evenodd" clip-rule="evenodd" d="M12.8003 2.99625C13.2224 2.99625 13.599 3.26128 13.7417 3.65853L14.2499 5.07412C14.3306 5.29672 14.4872 5.48376 14.6921 5.60234L16.1997 6.4727C16.4045 6.59082 16.6444 6.63264 16.877 6.59075L18.3576 6.32364C18.7734 6.24804 19.1918 6.44184 19.4031 6.80784L20.2034 8.18841C20.4152 8.55342 20.3752 9.01208 20.1034 9.33489L19.132 10.4834C18.979 10.664 18.895 10.8929 18.8949 11.1296V12.8704C18.895 13.1071 18.979 13.336 19.132 13.5166L20.1034 14.6651C20.3752 14.9879 20.4152 15.4466 20.2034 15.8116L19.4031 17.1922C19.192 17.5578 18.7741 17.7515 18.3586 17.6764L16.878 17.4093C16.6454 17.3674 16.4055 17.4092 16.2007 17.5273L14.6931 18.3977C14.4882 18.5162 14.3316 18.7033 14.2509 18.9259L13.7427 20.3415C13.5999 20.7391 13.2228 21.0041 12.8003 21.0037H11.1997C10.7776 21.0037 10.4009 20.7387 10.2583 20.3415L9.75005 18.9259C9.66941 18.7036 9.51326 18.5166 9.30887 18.3977L7.80024 17.5273C7.59551 17.4092 7.35557 17.3674 7.12296 17.4093L5.64234 17.6764C5.22657 17.752 4.80814 17.5582 4.5969 17.1922L3.79657 15.8116C3.58477 15.4466 3.62479 14.9879 3.89661 14.6651L4.86802 13.5166C5.02101 13.336 5.10502 13.1071 5.10512 12.8704V11.1296C5.10502 10.8929 5.02101 10.664 4.86802 10.4834L3.90662 9.33489C3.6348 9.01208 3.59477 8.55342 3.80657 8.18841L4.60691 6.80784C4.81801 6.44223 5.23591 6.24849 5.65134 6.32364L7.13196 6.59075C7.36458 6.63264 7.60451 6.59082 7.80924 6.4727L9.31787 5.60234C9.52227 5.48338 9.67841 5.29643 9.75905 5.07412L10.2673 3.65853C10.4088 3.26437 10.7809 3.00009 11.1997 2.99625H12.8003Z" stroke="white" stroke-width="1.5" stroke-linecap="round" stroke-linejoin="round"/>
<path fill-rule="evenodd" clip-rule="evenodd" d="M12 14.7511C13.5194 14.7511 14.7511 13.5194 14.7511 12C14.7511 10.4806 13.5194 9.24886 12 9.24886C10.4806 9.24886 9.24884 10.4806 9.24884 12C9.24884 13.5194 10.4806 14.7511 12 14.7511Z" stroke="white" stroke-width="1.5" stroke-linecap="round" stroke-linejoin="round"/>
</svg>
