<svg width="16" height="16" viewBox="0 0 16 16" fill="none" xmlns="http://www.w3.org/2000/svg">
<path fill-rule="evenodd" clip-rule="evenodd" d="M5.55875 12.9105L7.48409 10.5592C7.75075 10.2332 8.24875 10.2332 8.51542 10.5592L10.4408 12.9105C10.7981 13.3459 10.4881 13.9999 9.92542 13.9999H6.07475C5.51209 13.9999 5.20209 13.3459 5.55875 12.9105V12.9105Z" stroke="#6B757C" stroke-width="1.5" stroke-linecap="round" stroke-linejoin="round"/>
<path d="M5.32623 8.65869C5.93623 7.84202 6.90223 7.30536 8.00023 7.30536C9.09823 7.30536 10.0642 7.84135 10.6742 8.65869" stroke="#6B757C" stroke-width="1.5" stroke-linecap="round" stroke-linejoin="round"/>
<path d="M3.44363 6.77667C4.54163 5.48667 6.17363 4.66667 8.0003 4.66667C9.82697 4.66667 11.459 5.48667 12.557 6.77667" stroke="#6B757C" stroke-width="1.5" stroke-linecap="round" stroke-linejoin="round"/>
<path d="M1.55734 4.89067C3.14201 3.12067 5.43734 2 8.00001 2C10.5627 2 12.858 3.12067 14.4427 4.89067" stroke="#6B757C" stroke-width="1.5" stroke-linecap="round" stroke-linejoin="round"/>
</svg>
