<svg width="16" height="16" viewBox="0 0 16 16" fill="none" xmlns="http://www.w3.org/2000/svg">
<path d="M6.60952 6.78603C7.13022 7.30673 7.13022 8.15095 6.60952 8.67165C6.08882 9.19235 5.2446 9.19235 4.7239 8.67165C4.2032 8.15095 4.2032 7.30673 4.7239 6.78603C5.2446 6.26533 6.08882 6.26533 6.60952 6.78603" stroke="white" stroke-width="1.5" stroke-linecap="round" stroke-linejoin="round"/>
<path d="M10 7.33333H12.6667" stroke="white" stroke-width="1.5" stroke-linecap="round" stroke-linejoin="round"/>
<path d="M12 9.66683H10" stroke="white" stroke-width="1.5" stroke-linecap="round" stroke-linejoin="round"/>
<path d="M8.00004 12.0277C7.88671 11.743 7.71137 11.487 7.48604 11.2783V11.2783C7.10537 10.9257 6.60537 10.729 6.08604 10.729H5.24737C4.72804 10.729 4.22804 10.925 3.84737 11.2783V11.2783C3.62204 11.4863 3.44671 11.7423 3.33337 12.0277" stroke="white" stroke-width="1.5" stroke-linecap="round" stroke-linejoin="round"/>
<path fill-rule="evenodd" clip-rule="evenodd" d="M8.66675 4.66683H7.33341C6.96541 4.66683 6.66675 4.36816 6.66675 4.00016V2.00016C6.66675 1.63216 6.96541 1.3335 7.33341 1.3335H8.66675C9.03475 1.3335 9.33341 1.63216 9.33341 2.00016V4.00016C9.33341 4.36816 9.03475 4.66683 8.66675 4.66683Z" stroke="white" stroke-width="1.5" stroke-linecap="round" stroke-linejoin="round"/>
<path d="M6.66671 3.3335H2.69404C1.94271 3.3335 1.33337 3.94283 1.33337 4.69416V12.6668C1.33337 13.4035 1.93004 14.0002 2.66671 14.0002H13.3334C14.07 14.0002 14.6667 13.4035 14.6667 12.6668V4.66683C14.6667 3.93016 14.07 3.3335 13.3334 3.3335H9.33337" stroke="white" stroke-width="1.5" stroke-linecap="round" stroke-linejoin="round"/>
</svg>
